<svg xmlns="http://www.w3.org/2000/svg" xmlns:xlink="http://www.w3.org/1999/xlink" viewBox="0 0 701.38 252"><defs><style>.a{fill:none;}.b{clip-path:url(#a);}.c{fill:#909295;}.d{clip-path:url(#b);}.e{fill:url(#c);}</style><clipPath id="a"><rect class="a" x="24.7" y="28.29" width="651.98" height="197.05"></rect></clipPath><clipPath id="b"><path class="a" d="M632.66,52.14V69.73H611s-23-2.6-23,23v20.43h-21s-22.2-3-22.2,22.46v25.53c0,8.64,7.9,64.21,67.12,64.21s64.67-58.81,64.67-65.33V114.35H653.12s-19.62.56-19.62,23v22.42s1.41,23-21,23-23.82-19.89-23.82-19.89V114.35h22.42s21.58-1.12,21.58-22.42V71.47h23.83S676.66,69,676.66,46.53V28.31H651.72s-.26,0-.72,0c-3.46,0-18.34,1.31-18.34,23.85"></path></clipPath><linearGradient id="c" x1="50.02" y1="548.9" x2="56.21" y2="548.9" gradientTransform="matrix(-31.67, 0, 0, 31.67, 2290.25, -17256.35)" gradientUnits="userSpaceOnUse"><stop offset="0" stop-color="#84c55c"></stop><stop offset="0.1" stop-color="#5bc17a"></stop><stop offset="0.22" stop-color="#34bc97"></stop><stop offset="0.33" stop-color="#17b9ac"></stop><stop offset="0.42" stop-color="#06b8b9"></stop><stop offset="0.49" stop-color="#00b7bd"></stop><stop offset="0.82" stop-color="#0484b3"></stop><stop offset="1" stop-color="#0484b3"></stop></linearGradient></defs><g class="b"><path class="c" d="M56.24,148.93h-6c-4.3,0-7.82-3-9-7.42-1.73,2.5-3.86,3.76-6.34,3.76-6.33,0-10.24-4.81-10.24-11.78,0-7.53,3.91-12.19,10.24-12.19H47.17v15.89c0,3.92,1.84,6,5.55,6h3.52Zm-14.81-16v-7.28h-5c-3.86,0-6.24,3.11-6.24,7.78,0,3.86,2.13,7.16,5.45,7.16,3.61,0,5.79-3.41,5.79-7.66m-4.06-15.7H31.92v-5.61h5.45Zm9.36,0H41.28v-5.61h5.45Z"></path><path class="c" d="M59.91,159.91H54.46V154.3h5.45Zm17.62-11H54.7v-5.72H60a3.42,3.42,0,0,0,3.36-1.7,8.82,8.82,0,0,0,.6-3.81V126.17h5.49V137.4c0,3-.39,4.86-1.24,5.81h9.31Zm-8.27,11H63.82V154.3h5.44Z"></path><path class="c" d="M103.93,148.93H76.49v-5.72h7.19A12.56,12.56,0,0,1,82.59,138a12.29,12.29,0,0,1,3.17-8.58A10.62,10.62,0,0,1,94,125.86a10.19,10.19,0,0,1,9.7,6.47l-4.75,2.31a5.07,5.07,0,0,0-5.2-3.86A4.79,4.79,0,0,0,89.52,133a8.29,8.29,0,0,0-1.34,4.86A7.77,7.77,0,0,0,90,143.21h14Z"></path><path class="c" d="M123.64,148.93h-6.49a7.44,7.44,0,0,1-6.14-2.61,9.88,9.88,0,0,1-2-6.52V116.59h5.5v21c0,2.45.54,4.06,1.58,4.81.75.55,2.18.85,4.26.85h3.27Z"></path><path class="c" d="M154.24,148.93h-7.08a10.46,10.46,0,0,1-9,4.36,10.34,10.34,0,0,1-8.86-4.36h-7.59v-5.72h5.36c0-.55,0-1.1,0-1.65a11.58,11.58,0,0,1,3.07-8.27A10.7,10.7,0,0,1,138.2,130a10.27,10.27,0,0,1,8,3.36,12,12,0,0,1,3.07,8.38v1.45h5Zm-10.64-7.22a7.72,7.72,0,0,0-1.34-4.56,5.09,5.09,0,0,0-4.21-2.06,4.68,4.68,0,0,0-4,2,7.35,7.35,0,0,0-1.29,4.4c0,3.62,2.18,6.58,5.6,6.58a4.72,4.72,0,0,0,4-1.91,7.41,7.41,0,0,0,1.29-4.46"></path><path class="c" d="M157.76,121.5h-5.45v-5.57h5.45Zm17.73,27.43H152.61v-5.72h5.15a3.37,3.37,0,0,0,3.32-1.7,9,9,0,0,0,.59-3.81V126.17h5.5V137.4c0,3-.4,4.86-1.19,5.81h9.51Zm-8.32-27.43h-5.45v-5.57h5.45Z"></path><path class="c" d="M208.57,145.42v3.51H173.71v-5.72h28.86a12.51,12.51,0,0,0-2.57-8,10.27,10.27,0,0,0-8.52-3.81,10.64,10.64,0,0,0-4.16,1,12,12,0,0,0-4.45,3.15c-.55-1-1.44-2.51-2.68-4.41a18.55,18.55,0,0,1,5.3-3.56,17,17,0,0,1,16,1.36c4.7,3.15,7,8.62,7,16.49M194.65,160h-5.44v-5.62h5.44Z"></path><path class="c" d="M237.19,116.59v24.46c0,4.77-3.36,7.88-8.71,7.88H213.67v-5.72h7.58L215,120.15h5.84L227,143.21a4.49,4.49,0,0,0,3.37-1.1c.94-1,1.39-2.56,1.39-4.81V116.59Z"></path><rect class="c" x="242.4" y="116.54" width="5.5" height="32.39"></rect><path class="c" d="M294.49,148.93h-6c-4.31,0-7.82-3-9-7.42-1.74,2.5-3.87,3.76-6.35,3.76-6.33,0-10.25-4.81-10.25-11.78,0-7.53,3.92-12.19,10.25-12.19h12.24v15.89c0,3.92,1.83,6,5.55,6h3.51Zm-14.8-16v-7.28h-5c-3.87,0-6.25,3.11-6.25,7.78,0,3.86,2.13,7.16,5.45,7.16,3.62,0,5.8-3.41,5.8-7.66m-4.06-15.7h-5.45v-5.61h5.45Zm9.35,0h-5.44v-5.61H285Z"></path><path class="c" d="M298.16,159.91h-5.45V154.3h5.45Zm17.63-11H293v-5.72h5.29a3.43,3.43,0,0,0,3.37-1.7,8.82,8.82,0,0,0,.6-3.81V126.17h5.49V137.4c0,3-.39,4.86-1.24,5.81h9.32Zm-8.28,11h-5.44V154.3h5.44Z"></path><path class="c" d="M346.83,148.93h-7.08a10.45,10.45,0,0,1-9,4.36,10.34,10.34,0,0,1-8.86-4.36h-7.58v-5.72h5.35c-.05-.55-.05-1.1-.05-1.65a11.58,11.58,0,0,1,3.07-8.27,10.7,10.7,0,0,1,8.07-3.27,10.27,10.27,0,0,1,8,3.36,12,12,0,0,1,3.07,8.38v1.45h4.95Zm-10.64-7.22a7.72,7.72,0,0,0-1.34-4.56,5.07,5.07,0,0,0-4.21-2.06,4.68,4.68,0,0,0-4,2,7.35,7.35,0,0,0-1.28,4.4c0,3.62,2.17,6.58,5.59,6.58a4.72,4.72,0,0,0,4-1.91,7.41,7.41,0,0,0,1.29-4.46"></path><path class="c" d="M368.08,148.93H345.2v-5.72h5.16a3.35,3.35,0,0,0,3.31-1.7,8.82,8.82,0,0,0,.6-3.81V126.17h5.49V137.4c0,3-.39,4.86-1.19,5.81h9.51Zm-8.32-27.38h-5.44V116h5.44Z"></path><path class="c" d="M371.7,121.5h-5.45v-5.57h5.45Zm17.73,27.43H366.55v-5.72h5.15a3.35,3.35,0,0,0,3.31-1.7,8.82,8.82,0,0,0,.6-3.81V126.17h5.49V137.4c0,3-.39,4.86-1.18,5.81h9.51ZM381.1,121.5h-5.44v-5.57h5.44Z"></path><path class="c" d="M402,139.85c0,6.07-2.78,9.08-8.32,9.08h-5.85v-5.72h4.71c1.83,0,3-.55,3.51-1.65a11,11,0,0,0,.4-3.61V116.59H402Z"></path><rect class="c" x="407.06" y="116.54" width="5.5" height="32.39"></rect><path class="c" d="M477.63,148.93H443.36c-10.51,0-15.75-4.71-15.75-14.19v-8.58h5.5v8.58c0,3.26.93,5.57,2.82,6.87,1.48,1,3.76,1.6,6.78,1.6h16.84c1.63,0,2.77-.55,3.32-1.7a9,9,0,0,0,.59-3.81V116.59H469V137.4c0,2.95-.39,4.86-1.23,5.81h9.86ZM454.7,129.42H442.37v-3.36H445a5.84,5.84,0,0,1-.54-2.45,5.39,5.39,0,0,1,5.34-5.67,4.59,4.59,0,0,1,4.56,3l-2.33,1.6A2.07,2.07,0,0,0,450,121c-1.48,0-2.23,1-2.23,2.86a3.46,3.46,0,0,0,.7,2.25h6.24Z"></path><path class="c" d="M498.62,148.93H475.74v-5.72h5.15a3.35,3.35,0,0,0,3.32-1.7,8.85,8.85,0,0,0,.59-3.81V126.17h5.5V137.4c0,3-.4,4.86-1.19,5.81h9.51Zm-8.32-27.38h-5.45V116h5.45Z"></path><path class="c" d="M511.1,139.86c0,6.06-2.77,9.07-8.27,9.07h-5.34v-5.72h4.2c1.84,0,3-.55,3.52-1.65a11,11,0,0,0,.4-3.61V126.17h5.49Zm-.05,20h-5.39V154.3h5.39Z"></path><path class="c" d="M38.29,184.4a1.86,1.86,0,0,0-.44-1.28,3.24,3.24,0,0,0-1.22-.8,9.33,9.33,0,0,0-1.71-.51l-2-.38c-.92-.18-1.81-.39-2.65-.63a8.28,8.28,0,0,1-2.23-1,4.9,4.9,0,0,1-1.53-1.64,5,5,0,0,1-.57-2.5,6,6,0,0,1,.66-2.87,5.89,5.89,0,0,1,1.79-2,7.85,7.85,0,0,1,2.65-1.2,13.86,13.86,0,0,1,3.43-.4,22.6,22.6,0,0,1,3.83.33,18.07,18.07,0,0,1,3.31.84v3.27a22.78,22.78,0,0,0-3.55-.93,19.4,19.4,0,0,0-3.2-.29,6.6,6.6,0,0,0-3.32.69,2.23,2.23,0,0,0-1.17,2.06,2.09,2.09,0,0,0,.39,1.3,2.94,2.94,0,0,0,1,.85,7.42,7.42,0,0,0,1.51.54c.57.13,1.18.26,1.82.37,1,.19,2,.4,2.9.65a9.33,9.33,0,0,1,2.45,1,5,5,0,0,1,1.69,1.71,5.18,5.18,0,0,1,.62,2.69,5.66,5.66,0,0,1-.71,2.91,5.77,5.77,0,0,1-2,2,9.94,9.94,0,0,1-3.18,1.19,20.1,20.1,0,0,1-4.1.39,22.05,22.05,0,0,1-3.82-.33,12.24,12.24,0,0,1-3.13-.94v-3.23a18.23,18.23,0,0,0,3.44,1,18.71,18.71,0,0,0,3.46.31,13.77,13.77,0,0,0,2-.15,7.09,7.09,0,0,0,1.79-.5,3.31,3.31,0,0,0,1.27-1,2.4,2.4,0,0,0,.48-1.52"></path><path class="c" d="M69.78,180a12.08,12.08,0,0,1-.77,4.37,9.47,9.47,0,0,1-2.26,3.41A10.2,10.2,0,0,1,63.09,190a15.72,15.72,0,0,1-9.84,0,10.16,10.16,0,0,1-3.65-2.23,9.36,9.36,0,0,1-2.27-3.41,12.79,12.79,0,0,1,0-8.74,9.32,9.32,0,0,1,2.27-3.42A10.3,10.3,0,0,1,53.25,170a15.72,15.72,0,0,1,9.84,0,10.34,10.34,0,0,1,3.66,2.23A9.42,9.42,0,0,1,69,175.6a12,12,0,0,1,.77,4.37m-4.5,0a9.61,9.61,0,0,0-.53-3.33,6.74,6.74,0,0,0-1.48-2.37A5.87,5.87,0,0,0,61,172.85a8.88,8.88,0,0,0-5.7,0,5.76,5.76,0,0,0-2.24,1.42,6.46,6.46,0,0,0-1.48,2.37,10.51,10.51,0,0,0,0,6.65,6.46,6.46,0,0,0,1.48,2.37,5.86,5.86,0,0,0,2.24,1.41,8.7,8.7,0,0,0,5.7,0,6,6,0,0,0,2.25-1.41,6.74,6.74,0,0,0,1.48-2.37,9.56,9.56,0,0,0,.53-3.32"></path><path class="c" d="M86,172.38a10.16,10.16,0,0,0-3.28.52,7,7,0,0,0-2.58,1.5,6.68,6.68,0,0,0-1.69,2.42,8.25,8.25,0,0,0-.6,3.29,8.71,8.71,0,0,0,.55,3.23A6.06,6.06,0,0,0,80,185.67a6.88,6.88,0,0,0,2.52,1.41,11.36,11.36,0,0,0,3.38.47,20.12,20.12,0,0,0,2.76-.19,17.35,17.35,0,0,0,2.64-.54v3.28a20.64,20.64,0,0,1-2.7.49,23.86,23.86,0,0,1-3,.18,17.19,17.19,0,0,1-5.33-.75,10.65,10.65,0,0,1-3.84-2.14,8.73,8.73,0,0,1-2.32-3.3,11.19,11.19,0,0,1-.77-4.24,11.48,11.48,0,0,1,.83-4.42,10.1,10.1,0,0,1,2.38-3.54,11.1,11.1,0,0,1,3.9-2.35,15.68,15.68,0,0,1,5.31-.87,21.73,21.73,0,0,1,2.86.18,15.13,15.13,0,0,1,2.44.51v3.23a18.62,18.62,0,0,0-2.65-.54,18.06,18.06,0,0,0-2.41-.16"></path><rect class="c" x="95.74" y="169.55" width="4.36" height="20.83"></rect><path class="c" d="M119.45,185.07h-9l-2.33,5.31h-4.65l9.45-20.83h4l9.46,20.83h-4.61Zm-4.53-10.51q-1.24,3.27-2.22,5.47l-.82,1.85H118l-.81-1.85q-1-2.22-2.24-5.47Z"></path><polygon class="c" points="134.14 169.55 134.14 187.19 145.3 187.19 145.3 190.38 129.78 190.38 129.78 169.55 134.14 169.55"></polygon><path class="c" d="M156.91,190.38V169.55h6.3c.56,0,1.13,0,1.7,0s1.14.09,1.69.15,1.07.13,1.58.22a14.15,14.15,0,0,1,1.41.32,12.84,12.84,0,0,1,3.36,1.43,9.68,9.68,0,0,1,2.46,2.14,8.73,8.73,0,0,1,1.49,2.75,10.27,10.27,0,0,1,.51,3.29A11.05,11.05,0,0,1,177,183a8.49,8.49,0,0,1-1.3,2.69,9.16,9.16,0,0,1-2.2,2.14,12.23,12.23,0,0,1-3.14,1.52,18.51,18.51,0,0,1-3.44.74,33.26,33.26,0,0,1-4.33.25Zm6.16-3.19a15.8,15.8,0,0,0,6-.91,6.21,6.21,0,0,0,2.88-2.41,7.4,7.4,0,0,0,1-4,7.91,7.91,0,0,0-.32-2.31,6.08,6.08,0,0,0-.93-1.83,6,6,0,0,0-1.46-1.37,8,8,0,0,0-2-.95,12.06,12.06,0,0,0-2.27-.5,21.49,21.49,0,0,0-2.8-.16h-1.92v14.45Z"></path><polygon class="c" points="186.41 187.19 198.13 187.19 198.13 190.38 182.04 190.38 182.04 169.55 197.48 169.55 197.48 172.74 186.41 172.74 186.41 178.13 195.92 178.13 195.92 181.32 186.41 181.32 186.41 187.19"></polygon><path class="c" d="M211.59,185.29c.44-1.13.76-1.94,1-2.42s.6-1.47,1.23-3l4.42-10.35h4.61l-9.31,20.84h-3.92l-9.31-20.84h4.64l4.42,10.35q.94,2.25,1.23,3c.2.48.52,1.29,1,2.42Z"></path><polygon class="c" points="230.38 187.19 242.11 187.19 242.11 190.38 226.02 190.38 226.02 169.55 241.46 169.55 241.46 172.74 230.38 172.74 230.38 178.13 239.9 178.13 239.9 181.32 230.38 181.32 230.38 187.19"></polygon><polygon class="c" points="251.1 169.55 251.1 187.19 262.25 187.19 262.25 190.38 246.74 190.38 246.74 169.55 251.1 169.55"></polygon><path class="c" d="M287.08,180a12.08,12.08,0,0,1-.77,4.37,9.47,9.47,0,0,1-2.26,3.41,10.29,10.29,0,0,1-3.66,2.23,15.75,15.75,0,0,1-9.85,0,10.24,10.24,0,0,1-3.65-2.23,9.47,9.47,0,0,1-2.26-3.41,12.63,12.63,0,0,1,0-8.74,9.42,9.42,0,0,1,2.26-3.42,10.39,10.39,0,0,1,3.65-2.23,15.75,15.75,0,0,1,9.85,0,10.43,10.43,0,0,1,3.66,2.23,9.42,9.42,0,0,1,2.26,3.42,12,12,0,0,1,.77,4.37m-4.5,0a9.38,9.38,0,0,0-.54-3.33,6.6,6.6,0,0,0-1.48-2.37,5.91,5.91,0,0,0-2.24-1.42,8.88,8.88,0,0,0-5.7,0,5.76,5.76,0,0,0-2.24,1.42,6.34,6.34,0,0,0-1.48,2.37,10.51,10.51,0,0,0,0,6.65,6.34,6.34,0,0,0,1.48,2.37,5.86,5.86,0,0,0,2.24,1.41,8.7,8.7,0,0,0,5.7,0,6,6,0,0,0,2.24-1.41,6.6,6.6,0,0,0,1.48-2.37,9.32,9.32,0,0,0,.54-3.32"></path><path class="c" d="M298.31,182.32l-1.16,0c-.39,0-.74,0-1.07-.06v8.14h-4.37V169.55h6.88a29.75,29.75,0,0,1,3,.13,15,15,0,0,1,2.3.4,7.61,7.61,0,0,1,3.76,2.09,5.14,5.14,0,0,1,1.32,3.64,5.31,5.31,0,0,1-.71,2.72,6,6,0,0,1-2.08,2,11.43,11.43,0,0,1-3.35,1.3,21.27,21.27,0,0,1-4.54.45M296.08,179c.24,0,.57.06.95.07s.79,0,1.2,0a15.27,15.27,0,0,0,3-.25,6,6,0,0,0,1.92-.7,2.72,2.72,0,0,0,1.06-1.07,3,3,0,0,0,.31-1.38,2.74,2.74,0,0,0-.47-1.59,3.22,3.22,0,0,0-1.68-1,8,8,0,0,0-1.54-.27c-.62-.06-1.36-.09-2.26-.09h-2.45Z"></path><path class="c" d="M325.88,184.79q.78-2.46,1.94-5.28l4.12-10h6.12v20.83h-4.37V179.83c0-1.55.08-3.34.22-5.39h-.16c-.2.59-.44,1.25-.71,2s-.56,1.47-.86,2.18l-4.93,11.77h-2.81l-4.94-11.77c-.29-.71-.58-1.44-.85-2.18s-.51-1.4-.72-2h-.16c.15,1.92.22,3.71.22,5.37v10.57h-4.37V169.55h6.09l4.12,9.92q1,2.47,1.94,5.32Z"></path><polygon class="c" points="348.13 187.19 359.85 187.19 359.85 190.38 343.76 190.38 343.76 169.55 359.2 169.55 359.2 172.74 348.13 172.74 348.13 178.13 357.64 178.13 357.64 181.32 348.13 181.32 348.13 187.19"></polygon><path class="c" d="M376.89,179.23q2.57,3.2,4.17,5.67h.11c-.14-2.71-.22-4.68-.22-5.91v-9.44h4.37v20.83h-4.58L373,180.79a71,71,0,0,1-4.24-5.78h-.11c.14,2.56.21,4.53.21,5.94v9.43h-4.36V169.55h4.58Z"></path><polygon class="c" points="400.76 190.38 396.4 190.38 396.4 172.74 388.71 172.74 388.71 169.55 408.44 169.55 408.44 172.74 400.76 172.74 400.76 190.38"></polygon><path class="c" d="M436.6,175.09a4.62,4.62,0,0,1-.7,2.49,5,5,0,0,1-2.29,1.87v.06a8.57,8.57,0,0,1,1.63.68,5.44,5.44,0,0,1,1.27,1,4.33,4.33,0,0,1,.81,1.29,4.11,4.11,0,0,1,.3,1.6,5.33,5.33,0,0,1-.28,1.64,5,5,0,0,1-1,1.69,7.55,7.55,0,0,1-1.85,1.5A10.62,10.62,0,0,1,431.6,190c-.3.06-.62.12-1,.17s-.74.1-1.17.13-.9.06-1.43.08-1.11,0-1.76,0h-6.93V169.55h8.28a15.58,15.58,0,0,1,4.28.47,8.62,8.62,0,0,1,2.1.89,6.27,6.27,0,0,1,1.47,1.23,4.67,4.67,0,0,1,.86,1.44,4.46,4.46,0,0,1,.27,1.51m-9,3a8.39,8.39,0,0,0,2.66-.31,2.77,2.77,0,0,0,1.4-1,2.57,2.57,0,0,0,.41-1.43,2.4,2.4,0,0,0-.48-1.47,2.83,2.83,0,0,0-1.64-1,7.51,7.51,0,0,0-1.12-.18q-.64-.06-1.59-.06h-3.57v5.39Zm-3.93,3.19v5.87h2.84c.76,0,1.42,0,2-.05a11.17,11.17,0,0,0,1.41-.18,6.21,6.21,0,0,0,1.52-.47,3.1,3.1,0,0,0,1-.65A2,2,0,0,0,433,185a2.61,2.61,0,0,0,.16-.94,2.3,2.3,0,0,0-.55-1.53,3.34,3.34,0,0,0-1.73-1,7.19,7.19,0,0,0-1.21-.21c-.46,0-1.06-.06-1.78-.06Z"></path><path class="c" d="M455.71,185.07h-9l-2.34,5.31h-4.65l9.46-20.83h4l9.46,20.83h-4.61Zm-4.52-10.51q-1.26,3.27-2.23,5.47l-.82,1.85h6.16l-.81-1.85c-.64-1.48-1.39-3.3-2.23-5.47Z"></path><path class="c" d="M478.46,179.23q2.57,3.2,4.17,5.67h.11q-.23-4.07-.22-5.91v-9.44h4.36v20.83h-4.57l-7.77-9.59A71,71,0,0,1,470.3,175h-.1c.14,2.56.21,4.53.21,5.94v9.43H466V169.55h4.58Z"></path><polygon class="c" points="492.58 190.38 492.58 169.55 496.95 169.55 496.95 179.03 497.02 179.03 506.02 169.55 511.43 169.55 501.49 179.87 512.25 190.38 506.66 190.38 497.02 180.97 496.95 180.97 496.95 190.38 492.58 190.38"></polygon></g><g class="d"><rect class="e" x="492.46" y="20.24" width="236.62" height="213.15" transform="translate(193.38 590.4) rotate(-59.73)"></rect></g></svg>